# xmcd
#
# Track frame offsets:
#   150
#   24131
#   35908
#   45052
#   59096
#   73207
#   86706
#   100309
#   113730
#   125866
#   154240
#
# Disc length: 2300 seconds
#
# Revision: 0
# Processed by: cddbd v1.5.2PL0 Copyright (c) Steve Scherf et al.
# Submitted via: uFREEDB 1.6.0
#
DISCID=9808fa0b
DTITLE=Jos Spencer Bleus Explosion - Burn It Of
DYEAR=1900
DGENRE=Pop
TTITLE0=01 Bellbottoms
TTITLE1=02 Ditch
TTITLE2=03 Dang
TTITLE3=04 Very rare
TTITLE4=05 Sweat
TTITLE5=06 Cowboy
TTITLE6=07 Orange
TTITLE7=08 Brenda
TTITLE8=09 Dissect
TTITLE9=10 Flavor
TTITLE10=11 Greyhound
EXTD=
EXTT0=
EXTT1=
EXTT2=
EXTT3=
EXTT4=
EXTT5=
EXTT6=
EXTT7=
EXTT8=
EXTT9=
EXTT10=
PLAYORDER=
